<svg height="13" viewBox="0 0 16 13" width="16" xmlns="http://www.w3.org/2000/svg" xmlns:xlink="http://www.w3.org/1999/xlink"><defs><path id="a" d="m7 4v-1.601c0-.117-.074-.229-.2-.304-.24-.143-.599-.123-.802.046l-5.863 4.856c-.179.148-.18.364-.002.514l5.861 4.952c.11.091.269.143.438.143.314 0 .568-.178.568-.4v-1.894-.312s6-1 9 5c0-10-9-11-9-11"/><mask id="b" fill="#fff"><use fill="#fff" fill-rule="evenodd" xlink:href="#a"/></mask></defs><g fill="none" fill-rule="evenodd" transform="translate(0 -2)"><path d="m0 0h16v16h-16z" fill="none"/><g fill-rule="evenodd"><use fill="#000" xlink:href="#a"/><path d="m0 0h16v16h-16z" fill="#797979" mask="url(#b)"/></g></g></svg>